<svg t="1749915482777" class="icon" viewBox="0 0 1024 1024" version="1.1" xmlns="http://www.w3.org/2000/svg" p-id="10635" width="200" height="200"><path d="M482.267429 269.714286c0 64-33.133714 139.995429-106.861715 139.995428-92.562286 0-148.553143-116.553143-148.553143-196.571428C226.852571 149.138286 259.986286 73.142857 333.714286 73.142857c93.147429 0 148.553143 116.553143 148.553143 196.571429z m-195.401143 276.004571c0 55.442286-29.147429 113.152-92.013715 113.152-91.428571 0-158.281143-112.018286-158.281142-194.852571 0-55.442286 29.696-113.700571 92.013714-113.700572 91.428571 0 158.281143 112.566857 158.281143 195.437715zM512 530.285714c139.995429 0 329.142857 201.728 329.142857 336.566857C841.142857 939.410286 781.714286 950.857143 723.419429 950.857143 646.838857 950.857143 585.142857 899.437714 512 899.437714c-76.580571 0-141.714286 50.870857-224.585143 50.870857-55.442286 0-104.557714-18.870857-104.557714-83.419428 0-135.424 189.147429-336.566857 329.142857-336.566857z m136.557714-120.576c-73.728 0-106.861714-75.995429-106.861714-139.995428C541.696 189.696 597.138286 73.142857 690.249143 73.142857c73.728 0 106.861714 75.995429 106.861714 139.995429 0 80.018286-55.990857 196.571429-148.553143 196.571428z m246.857143-59.428571c62.281143 0 92.013714 58.294857 92.013714 113.700571 0 82.870857-66.852571 194.852571-158.281142 194.852572-62.866286 0-92.013714-57.709714-92.013715-113.152 0-82.870857 66.852571-195.437714 158.281143-195.437715z" fill="#7C4000" p-id="10636"></path></svg>